<?xml version="1.0" encoding="UTF-8" standalone="no"?>
<!-- Created with Inkscape (http://www.inkscape.org/) -->

<svg
   width="1076.505mm"
   height="183.79901mm"
   viewBox="0 0 1076.505 183.79901"
   version="1.1"
   id="svg1"
   xml:space="preserve"
   xmlns="http://www.w3.org/2000/svg"
   xmlns:svg="http://www.w3.org/2000/svg"><defs
     id="defs1" /><g
     id="layer1"
     transform="translate(-20.793543,-6.8981236)"><g
       style="fill:#dad7cd;stroke:#dad7cd"
       id="g1"
       transform="matrix(0.60972155,0,0,0.60972155,-14.370541,0.30427419)"><g
         style="fill:#000000"
         id="g3"
         transform="matrix(0.73862341,0,0,0.73862341,37.785995,9.6148733)"><g
           id="g2"
           transform="translate(-7.1926427)">
	
	
<g
   id="layer2"
   style="fill:#000000;stroke:#dad7cd"
   transform="translate(7.1926429)"><path
     d="M 425.31359,97.237802 325.58297,48.831736 V 11.033509 c 0,-3.5439317 -2.87313,-6.4170657 -6.41706,-6.4170657 -3.54393,0 -6.41707,2.873134 -6.41707,6.4170657 V 42.602046 L 235.81593,5.2607163 c -1.7694,-0.859031 -3.83399,-0.859031 -5.60424,0 L 40.713177,97.238652 c -3.188854,1.5478 -4.51847,5.386058 -2.970674,8.574908 1.547796,3.188 5.386057,4.51933 8.574911,2.97068 l 7.974274,-3.87078 v 295.42203 c 0,3.54393 2.873134,6.41706 6.417065,6.41706 H 405.31886 c 3.54394,0 6.41707,-2.87313 6.41707,-6.41706 V 104.91346 l 7.97427,3.87078 c 0.90267,0.43807 1.85668,0.64513 2.79784,0.64513 2.38031,0 4.66821,-1.33048 5.77708,-3.61666 1.54779,-3.188 0.21732,-7.027118 -2.97153,-8.574908 z M 398.9018,393.91842 H 67.125819 V 98.683782 L 233.01381,18.16672 398.9018,98.683782 Z"
     id="path2"
     style="fill:#e8e8e8;fill-opacity:1;stroke:#e8e8e8;stroke-width:5.98454;stroke-dasharray:none;stroke-opacity:1"
     transform="translate(-7.1926427)" /><path
     d="m 172.46922,111.04304 c -13.92931,14.18257 -21.6007,33.09581 -21.6007,53.25651 v 88.17904 l -33.16938,33.16939 c -2.50608,2.50608 -2.50608,6.56936 0,9.07458 1.25261,1.25262 2.89538,1.87978 4.53729,1.87978 1.64192,0 3.28468,-0.62631 4.5373,-1.87978 l 26.33478,-26.33478 c 5.50071,15.81593 20.5483,27.20323 38.21405,27.20323 22.30658,0 40.45489,-18.14746 40.45489,-40.4549 v -91.89494 c 0,-3.54393 -2.87313,-6.41707 -6.41706,-6.41707 -3.54393,0 -6.41707,2.87314 -6.41707,6.41707 v 91.89494 c 0,15.22984 -12.39007,27.62077 -27.62076,27.62077 -15.22898,0 -27.61905,-12.38922 -27.61991,-27.61906 v -0.003 -90.83485 c 0,-34.4913 27.66012,-62.55098 61.65774,-62.55098 26.37463,0 48.93515,16.89188 57.72625,40.57412 2.54087,6.84481 3.93148,14.25686 3.93148,21.99227 0,3.54393 2.87314,6.41706 6.41707,6.41706 h 43.83369 c 0.0462,5.9944 0.10438,15.65679 0.10438,26.46398 0,14.61038 -11.86472,26.49564 -26.44772,26.49564 h -16.55175 c -3.54393,0 -6.41707,2.87313 -6.41707,6.41706 v 144.55852 c 0,3.54393 2.87314,6.41707 6.41707,6.41707 3.54393,0 6.41706,-2.87314 6.41706,-6.41707 V 236.52577 h 10.13469 c 21.65974,0 39.28185,-17.64351 39.28185,-39.32977 0,-17.96949 -0.15914,-32.80318 -0.16085,-32.95035 -0.0385,-3.51655 -2.89966,-6.3469 -6.41707,-6.3469 H 299.59129 C 298.14103,140.1654 290.69296,123.72317 278.25326,111.05246 264.23754,96.776622 245.4535,88.915292 225.36039,88.915292 c -20.09226,-8.6e-4 -38.8763,7.85791 -52.89117,22.127748 z"
     id="path1"
     style="fill:#e8e8e8;fill-opacity:1;stroke:#e8e8e8;stroke-width:5.98454;stroke-dasharray:none;stroke-opacity:1"
     transform="translate(-7.1926427)" /></g><g
   id="layer3"
   style="fill:#000000;stroke:#dad7cd"
   transform="translate(7.1926429)"><path
     style="font-size:533.333px;font-family:Alegreya;-inkscape-font-specification:'Alegreya, @wght=500';font-variation-settings:'wght' 500;white-space:pre;fill:#e8e8e8;stroke:#e8e8e8;stroke-width:0"
     d="m 497.75733,347.39218 2.50045,-19.6464 q 15.3599,-2.85765 20.3608,-8.57296 5.0009,-5.71532 5.0009,-21.07523 l 0.35721,-143.95446 q 0,-11.43063 -2.50045,-15.35991 -2.50045,-3.92927 -10.0018,-3.92927 -3.21487,0 -7.85856,0.3572 -4.28648,0.35721 -4.28648,0.35721 l -1.42883,-1.78604 2.85766,-18.21756 q 1.78603,0 8.93018,0.35721 7.50134,0 16.43152,0.3572 9.28737,0 16.43154,0 4.28649,0 12.14503,0 7.85854,-0.3572 16.43151,-0.71441 8.57298,-0.35721 14.28827,-0.35721 6.07255,-0.3572 6.07255,-0.3572 21.43244,0 36.43515,4.64369 15.35989,4.64369 25.00449,13.57387 10.00178,8.93018 14.64546,21.07522 4.64374,12.14504 4.64374,26.43332 0,15.71711 -6.78699,30.0054 -6.78692,13.93108 -18.57476,25.36171 -11.78784,11.07342 -26.79055,17.50315 -14.64545,6.42972 -31.07697,6.42972 h -30.3626 l -0.35725,31.43423 q 0,14.64549 1.07162,22.14684 1.07162,7.50135 4.64374,10.0018 3.57205,2.14324 10.35897,2.14324 5.00092,0 11.43066,-0.3572 6.42973,-0.71442 6.42973,-0.71442 l 0.71437,1.78604 -3.21487,19.28918 q 0,0 -4.28649,-0.3572 -3.92923,0 -10.00178,-0.35721 -6.07248,0 -12.50221,-0.35721 -6.42973,0 -11.07347,0 -7.14411,0 -16.7887,0.35721 -9.2874,0.35721 -18.21757,0.71441 -8.93018,0.35721 -15.0027,0.71442 -5.71532,0.71441 -6.07252,1.07162 z M 596.7037,239.15842 q 38.57839,-7.14414 38.57839,-52.50945 0,-25.3617 -14.64552,-37.14954 -14.64546,-11.78783 -46.07968,-11.78783 -6.07255,0 -7.50136,0.71442 -1.07162,0.71441 -1.42887,5.00089 -1.42881,21.78964 -2.50043,45.36531 -1.07162,23.57567 -1.78606,45.3653 z m 99.34572,89.30178 q 10.71622,-1.07162 14.28827,-6.42973 3.57212,-5.71532 3.57212,-21.07522 v -75.0135 q 0,-12.14504 -3.21487,-16.78873 -3.21486,-5.0009 -11.0734,-5.0009 -2.5005,0 -5.00093,0.71442 -2.14324,0.35721 -2.14324,0.35721 l -1.78606,-2.50045 1.42887,-14.28829 q 13.21665,-2.50045 25.71886,-5.0009 12.85947,-2.50045 21.43244,-4.28648 8.57298,-2.14325 8.57298,-2.14325 l 2.85768,2.50045 q 0,0 -1.07162,5.71532 -0.71444,5.35811 -1.42888,13.57386 -0.71437,7.85856 -0.71437,16.07433 l 1.42881,1.07162 q 11.43066,-16.43153 25.00449,-26.43333 13.93109,-10.359 25.36175,-10.359 5.71529,0 8.57297,0.71441 3.21487,0.71441 3.21487,0.71441 l 1.07162,2.14325 q 0,0 -0.71444,5.3581 -0.71443,5.0009 -2.14324,13.57387 -1.07162,8.57297 -2.14325,18.93198 -0.71443,10.0018 -1.4288,19.28918 l -17.86039,1.07163 q 0,-15.71712 -1.78606,-20.71801 -1.78599,-5.00091 -8.21572,-5.00091 -6.78692,0 -14.64553,5.35811 -7.50135,5.3581 -14.28827,15.0027 0,0 -0.35718,6.42973 -0.35726,6.42972 -0.71444,16.43153 -0.35719,9.64459 -1.07162,20.0036 -0.35719,10.359 -0.71444,18.21756 -0.35718,7.85856 -0.35718,10.00179 0,10.71622 3.21486,15.0027 3.57205,3.92928 12.50228,3.92928 4.64367,0 10.71622,-0.3572 6.07248,-0.71442 6.07248,-0.71442 l 0.71444,1.78604 -3.57205,19.28918 q 0,0 -4.28649,-0.3572 -3.9293,0 -10.35904,-0.35721 -6.42973,0 -13.5739,-0.35721 -6.78691,0 -12.50221,0 -10.71622,0 -20.00363,0.35721 -9.28735,0.35721 -15.00264,0.71441 -5.71537,0.35721 -5.71537,0.35721 z m 208.25165,20.36081 q -23.57568,0 -41.07882,-10.00181 -17.50314,-10.00179 -27.14774,-27.86215 -9.64459,-18.21756 -9.64459,-42.50765 0,-18.93197 6.42973,-35.3635 6.42973,-16.43152 17.50314,-28.93378 11.43065,-12.50225 26.07611,-19.64639 14.64552,-7.14414 31.43422,-7.14414 56.43872,0 56.43872,55.72431 0,5.0009 -1.07163,10.35901 -0.71437,5.35811 -1.4288,8.57296 l -4.28649,3.92929 h -95.73148 q 0,28.57657 11.43059,45.00809 11.43066,16.43153 32.14866,18.57477 21.07519,2.14324 49.29455,-10.71621 l 2.14324,1.07162 5.00093,13.57387 q -7.50136,5.35811 -17.86033,11.43063 -10.00185,5.71531 -20.71807,9.64459 -10.35896,4.28649 -18.93194,4.28649 z m -41.79326,-108.94818 57.51034,-2.85765 q 4.64374,-0.71442 6.07255,-2.14324 1.78605,-1.78604 1.78605,-6.78694 0,-13.93108 -6.78698,-21.07522 -6.78692,-7.14414 -19.64638,-7.14414 -15.35989,0 -26.07611,10.71621 -10.35897,10.35901 -12.85947,29.29098 z m 122.14428,108.59097 2.14325,-18.21757 q 9.28741,-2.14324 13.21666,-6.07252 3.9293,-4.28648 4.6437,-10.71621 1.0716,-6.78694 1.0716,-17.14594 v -170.745 q 0,-9.28739 -1.786,-13.21666 -1.4288,-4.28649 -6.42974,-5.35811 -4.64368,-1.07163 -13.93109,-0.35721 l -1.42881,-1.07162 1.78606,-15.359907 q 15.35989,-1.786035 30.71978,-4.286485 15.7172,-2.857657 31.077,-6.429728 l 2.1433,5.715314 q -1.4289,3.572072 -3.2149,17.145936 -1.4289,13.21667 -2.8577,34.64909 -1.0716,21.43244 -2.1432,48.93738 -1.0716,27.14774 -1.7861,58.58197 -0.3571,31.07702 -0.3571,63.94007 0,9.64459 2.5004,13.93108 2.8577,4.28648 9.2874,4.28648 l 12.145,-0.71441 0.7145,1.78603 -3.2149,17.86036 q -7.5014,-0.3572 -17.8604,-0.71441 -10.359,-0.35721 -17.8603,-0.35721 -6.7869,0 -17.5032,1.07162 -10.35899,1.07162 -21.07521,2.85766 z m 166.81581,0.35721 q -21.4324,0 -37.8639,-10.00181 -16.0743,-10.00179 -25.3617,-28.21935 -8.9302,-18.21757 -8.9302,-42.15045 0,-26.43332 10.7162,-46.79413 11.0734,-20.71801 30.3626,-32.50585 19.2892,-11.78783 43.2221,-11.78783 21.7896,0 37.8639,10.0018 16.4315,10.0018 25.3618,28.21936 8.9301,17.86036 8.9301,42.15044 0,26.07612 -11.0734,46.79414 -10.7162,20.71801 -30.0054,32.50584 -18.932,11.78784 -43.2221,11.78784 z m 8.573,-21.78964 q 17.8603,0 27.8622,-14.28829 10.359,-14.64549 10.359,-40.72161 0,-21.78963 -5.7153,-37.50674 -5.3582,-16.07432 -15.3599,-24.64729 -9.6446,-8.57297 -23.2185,-8.57297 -17.5032,0 -27.8621,14.64549 -10.0019,14.64549 -10.0019,40.72161 0,22.14684 5.3581,37.86395 5.3581,15.71711 15.3599,24.29009 10.0019,8.21576 23.2185,8.21576 z m 143.6815,23.21846 q 0,0 -2.5004,-7.50134 -2.1433,-7.85856 -6.0726,-20.71802 -3.572,-12.85946 -8.2157,-27.86215 -4.6438,-15.0027 -9.2874,-30.36261 -4.2865,-15.35991 -8.2158,-27.86215 -3.9293,-12.50225 -6.4298,-19.6464 -6.0724,-17.50315 -23.5756,-18.21756 l -0.7144,-1.42882 2.5004,-15.35991 q 0,0 5.7154,0 6.0725,0 13.5738,0.3572 7.5014,0 12.145,0 11.4307,0 21.7897,-0.71441 10.359,-0.71441 16.7887,-1.07162 6.787,-0.71441 6.787,-0.71441 l 0.7144,1.78603 -2.5004,15.3599 q -11.4307,0.35722 -15.36,2.50045 -3.9292,1.78604 -3.9292,6.78694 0,2.14324 1.786,10.71621 1.786,8.57297 5.0009,20.71802 3.2149,11.78784 6.4297,24.29008 3.2149,12.50225 6.4297,23.57567 3.2149,11.07342 5.001,17.86036 1.786,6.78693 1.786,6.78693 h 2.5005 q 11.4306,-30.0054 20.0035,-51.43783 8.573,-21.78963 12.8595,-34.64908 4.6437,-13.21667 4.6437,-17.14594 0,-4.6437 -3.2149,-6.07252 -2.8576,-1.78604 -10.7162,-1.78604 h -11.7879 l -1.4288,-2.14325 2.1433,-15.00269 q 0,0 6.0725,0 6.4298,0 15.3599,0.3572 8.9302,0 17.5032,0 6.7869,0 13.5739,0 7.1441,-0.3572 11.7877,-0.3572 5.001,0 5.001,0 l -2.5005,16.78873 q -7.8585,1.42883 -11.7878,5.71532 -3.5721,4.28648 -9.6446,18.57476 l -48.223,122.16484 z m 185.1172,-1.42882 q -23.5756,0 -41.0788,-10.00181 -17.5032,-10.00179 -27.1478,-27.86215 -9.6445,-18.21756 -9.6445,-42.50765 0,-18.93197 6.4297,-35.3635 6.4297,-16.43152 17.5032,-28.93378 11.4306,-12.50225 26.0761,-19.64639 14.6454,-7.14414 31.4342,-7.14414 56.4387,0 56.4387,55.72431 0,5.0009 -1.0716,10.35901 -0.7144,5.35811 -1.4288,8.57296 l -4.2865,3.92929 h -95.7315 q 0,28.57657 11.4306,45.00809 11.4306,16.43153 32.1486,18.57477 21.0753,2.14324 49.2946,-10.71621 l 2.1433,1.07162 5.0009,13.57387 q -7.5014,5.35811 -17.8604,11.43063 -10.0018,5.71531 -20.718,9.64459 -10.359,4.28649 -18.932,4.28649 z m -41.7932,-108.94818 57.5103,-2.85765 q 4.6437,-0.71442 6.0726,-2.14324 1.786,-1.78604 1.786,-6.78694 0,-13.93108 -6.7869,-21.07522 -6.787,-7.14414 -19.6464,-7.14414 -15.3599,0 -26.0761,10.71621 -10.3591,10.35901 -12.8595,29.29098 z m 273.978,108.94818 q -29.6482,0 -33.5775,-25.36171 l -2.5004,-1.07162 q -17.8603,12.50225 -28.5766,18.93198 -10.7162,6.42972 -14.6455,6.42972 -20.3608,0 -36.0779,-9.64459 -15.3599,-9.64459 -23.9328,-26.79053 -8.573,-17.14594 -8.573,-40.36441 0,-26.43332 11.7878,-47.50854 11.7879,-21.07522 32.1486,-33.22027 20.7181,-12.50224 45.7226,-12.50224 4.6436,0 10.0018,0.3572 5.3581,0.35721 11.7878,0.71442 v -53.22386 q 0,-10.35901 -3.2149,-15.0027 -3.2148,-4.6437 -10.7162,-4.6437 -2.8577,0 -6.0725,0.71442 -2.8576,0.71441 -2.8576,0.71441 l 1.7859,-16.788732 q 10.7163,-1.428827 21.4325,-3.214861 10.7162,-1.786036 19.6464,-3.572072 9.2874,-2.143243 14.2882,-3.214864 5.3581,-1.071621 5.3581,-1.071621 l 2.8577,5.358106 q -1.786,2.500451 -3.2148,15.717114 -1.4288,12.85946 -2.8577,34.29189 -1.4288,21.43242 -2.5004,48.22295 -1.0717,26.79054 -1.7861,57.51035 -0.3572,30.3626 -0.3572,62.15404 0,7.50134 3.5721,11.78783 3.5721,3.92928 9.6446,3.92928 5.3581,0 9.6446,-1.78603 4.2864,-2.14325 6.7869,-3.92929 2.8577,-2.14323 2.8577,-2.14323 l 5.3581,6.78693 q 0,0 -2.8577,3.92928 -2.5004,3.92928 -7.1441,9.64459 -4.2865,5.71532 -10.3591,10.71621 -6.0724,5.0009 -12.8594,7.14415 z m -70.3698,-28.93378 q 6.0725,0 11.7878,-2.14324 6.0726,-2.50045 11.0735,-5.71532 5.0009,-3.21486 7.8585,-5.35811 3.2149,-2.50045 3.2149,-2.50045 v -94.30267 q 0,0 -8.573,-3.57207 -8.2158,-3.92928 -22.504,-3.92928 -20.718,0 -32.8631,15.0027 -11.7878,14.64549 -11.7878,41.07882 0,17.50314 5.3581,31.79142 5.7153,13.93108 15.0027,21.78964 9.6445,7.85856 21.4324,7.85856 z m 188.963,27.50495 2.5004,-19.6464 q 15.3599,-2.85765 20.3608,-8.57296 5.0009,-5.71532 5.0009,-21.07523 l 0.3572,-143.95446 q 0,-11.43063 -2.5005,-15.35991 -2.5004,-3.92927 -10.0017,-3.92927 -3.2149,0 -7.8586,0.3572 -4.2865,0.35721 -4.2865,0.35721 l -1.4288,-1.78604 2.8576,-18.21756 q 1.7861,0 8.9303,0.35721 7.5012,0 16.4315,0.3572 9.2873,0 16.4315,0 4.2865,0 12.145,0 7.8586,-0.3572 16.4315,-0.71441 8.573,-0.35721 14.2884,-0.35721 6.0725,-0.3572 6.0725,-0.3572 21.4324,0 36.4351,4.64369 15.3599,4.64369 25.0045,13.57387 10.0018,8.93018 14.6454,21.07522 4.6438,12.14504 4.6438,26.43332 0,15.71711 -6.787,30.0054 -6.7869,13.93108 -18.5748,25.36171 -11.7878,11.07342 -26.7904,17.50315 -14.6456,6.42972 -31.0771,6.42972 h -30.3626 l -0.3572,31.43423 q 0,14.64549 1.0716,22.14684 1.0716,7.50135 4.6437,10.0018 3.5721,2.14324 10.359,2.14324 5.0009,0 11.4307,-0.3572 6.4297,-0.71442 6.4297,-0.71442 l 0.7144,1.78604 -3.2148,19.28918 q 0,0 -4.2865,-0.3572 -3.9293,0 -10.0019,-0.35721 -6.0725,0 -12.5022,-0.35721 -6.4297,0 -11.0734,0 -7.1442,0 -16.7888,0.35721 -9.2874,0.35721 -18.2175,0.71441 -8.9302,0.35721 -15.0027,0.71442 -5.7153,0.71441 -6.0725,1.07162 z m 98.9463,-108.23376 q 38.5784,-7.14414 38.5784,-52.50945 0,-25.3617 -14.6455,-37.14954 -14.6455,-11.78783 -46.0797,-11.78783 -6.0725,0 -7.5013,0.71442 -1.0717,0.71441 -1.4289,5.00089 -1.4288,21.78964 -2.5005,45.36531 -1.0716,23.57567 -1.786,45.3653 z m 157.5806,109.66259 q -23.5757,0 -41.0789,-10.00181 -17.5031,-10.00179 -27.1477,-27.86215 -9.6446,-18.21756 -9.6446,-42.50765 0,-18.93197 6.4297,-35.3635 6.4298,-16.43152 17.5032,-28.93378 11.4306,-12.50225 26.0761,-19.64639 14.6455,-7.14414 31.4343,-7.14414 56.4387,0 56.4387,55.72431 0,5.0009 -1.0716,10.35901 -0.7145,5.35811 -1.4289,8.57296 l -4.2865,3.92929 h -95.7315 q 0,28.57657 11.4307,45.00809 11.4306,16.43153 32.1486,18.57477 21.0752,2.14324 49.2946,-10.71621 l 2.1432,1.07162 5.0009,13.57387 q -7.5014,5.35811 -17.8603,11.43063 -10.0018,5.71531 -20.718,9.64459 -10.3591,4.28649 -18.932,4.28649 z m -41.7932,-108.94818 57.5103,-2.85765 q 4.6437,-0.71442 6.0725,-2.14324 1.786,-1.78604 1.786,-6.78694 0,-13.93108 -6.7869,-21.07522 -6.787,-7.14414 -19.6464,-7.14414 -15.3599,0 -26.0761,10.71621 -10.359,10.35901 -12.8594,29.29098 z m 188.6055,108.94818 q -24.6472,0 -35.7207,-10.00181 -10.7162,-10.359 -10.7162,-33.57746 v -84.30088 q 0,-10.0018 -4.2864,-13.93108 -3.9293,-3.92928 -15.7172,-4.28648 l -2.1432,-2.50045 1.786,-13.57388 q 10.0018,-5.0009 19.2892,-10.71621 9.2874,-6.07252 16.4315,-11.43062 7.5014,-5.71532 11.4306,-9.28739 4.2865,-3.57207 4.2865,-3.57207 l 8.573,3.57207 q 0,0 -1.0716,7.50135 -1.0717,7.50134 -2.5005,21.43242 l 47.8658,-1.07162 1.4288,1.07162 -3.5721,21.43243 -47.1513,-1.07162 q -1.0716,16.07432 -1.786,37.14954 -0.7145,21.07522 -0.7145,46.79413 0,16.78874 5.7154,24.29008 6.0725,7.14415 20.0036,7.14415 8.2158,0 15.3599,-2.85766 7.5013,-3.21486 7.5013,-3.21486 l 3.9293,10.359 q 0,0 -4.6437,3.92928 -4.2864,3.57207 -11.0734,8.57298 -6.4298,4.64369 -12.8595,8.21576 -6.0725,3.92928 -9.6446,3.92928 z m 105.3758,0 q -13.2166,0 -23.5757,-2.14325 -10.0018,-2.14324 -15.7171,-4.28649 -5.3581,-2.14323 -5.3581,-2.14323 l -1.4288,-2.85766 q 0.7144,-4.6437 1.4288,-13.21667 1.0716,-8.93017 1.786,-18.57477 1.0717,-9.64459 1.0717,-15.71711 l 15.7171,-1.78603 q 0.3572,21.07521 8.2157,30.3626 7.8586,9.28738 25.3618,9.28738 11.7878,0 20.0035,-5.3581 8.2158,-5.35811 8.2158,-13.21667 0,-5.3581 -3.2148,-10.00179 -3.2149,-4.6437 -11.7879,-10.0018 -8.2158,-5.71532 -23.9329,-13.21667 -20.718,-10.359 -30.3626,-21.43243 -9.2874,-11.07341 -9.2874,-24.64728 0,-15.35991 8.9302,-27.14774 8.9302,-11.78784 24.6473,-18.57478 16.0743,-6.78693 35.7207,-6.78693 16.0743,0 26.7906,3.21486 11.0734,2.85766 11.0734,2.85766 l 1.0716,2.50045 q 0,0 -1.4288,6.42973 -1.0716,6.42972 -2.8577,16.43153 -1.4288,10.00179 -2.5004,21.78963 l -16.4315,1.42883 q 0,0 0.3571,-3.21486 0.3572,-3.21487 0.3572,-5.35811 0,-12.85946 -6.7869,-18.57477 -6.4297,-6.07253 -20.3608,-6.07253 -11.0734,0 -18.5748,5.35811 -7.5013,5.0009 -7.5013,12.50226 0,7.85855 6.4297,14.64548 6.7869,6.42973 21.7896,14.28829 20.0037,9.64459 31.0771,17.86035 11.0734,7.85856 15.3599,15.71712 4.6436,7.85856 4.6436,17.50315 0,14.28828 -9.2873,26.43332 -9.2874,11.78784 -25.0045,18.93198 -15.7171,6.78694 -34.6491,6.78694 z"
     id="text4"
     aria-label="Preloved Pets" /></g></g></g></g></g></svg>
